<svg viewBox="165.0270270270271 229.95000000000005 805.9459459459459 1130.5875" xmlns="http://www.w3.org/2000/svg" overflow="visible" xmlns:xlink="http://www.w3.org/1999/xlink" width="805.9459459459459px" height="1130.5875px"><g id="Master/Pose/Bust" stroke="none" stroke-width="1" fill="none" fill-rule="evenodd"><g id="Body" transform="translate(147.000000, 639.000000) scale(1 1)"><g id="Body/Tee 2" stroke="none" stroke-width="1" fill="none" fill-rule="evenodd"><path d="M47.9995502,350.888305 L764.471804,407.766953 L765.22201,412.635528 C777.227839,490.825714 783.292007,543.872103 783.414516,571.774697 L783.41641,572.629647 C783.41641,600.296123 791.909614,644.297584 808.896023,704.634031 L809.94662,708.348509 L46.9995502,709.677696 L37.9995502,528.065892 L47.9995502,350.888305 Z M472.169286,-38.8170214 C501.301539,-37.379399 530.661457,-24.8902772 532.929221,-16.908258 C537.979813,0.868687641 546.101986,76.9655462 572.811422,88.6567654 C599.520858,100.347985 656.54242,89.689443 672.845643,117.609121 C689.148866,145.528799 742.689229,259.341414 742.689229,285.860811 C742.689229,303.54041 568.207206,309.677287 219.24316,304.271444 C223.698007,161.869755 242.270628,87.013844 274.961025,79.70371 L277.879277,79.0587326 C325.154913,68.7317142 353.409346,68.3987667 369.536561,51.75139 C385.992902,34.764271 388.979166,5.60573336 395.806186,-16.908258 C399.567808,-29.3132511 436.420404,-40.5811621 472.169286,-38.8170214 Z" id="✋-Skin" fill="#ffdbb4"/><path d="M536.05662,5.68850908 C536.16662,5.60573336 536.27762,5.57850908 536.39662,5.63850908 C538.66662,6.72850908 539.13662,8.90850908 539.91662,11.1785091 C541.05662,14.4985091 542.37662,17.7385091 543.59662,21.0285091 C546.02762,27.6285091 548.34662,34.2185091 551.05662,40.7085091 C553.83662,47.3885091 556.71662,53.9485091 560.01662,60.3985091 C561.60662,63.5185091 563.31662,66.5785091 565.05662,69.6185091 C566.25662,71.7285091 567.37662,74.6285091 568.95662,76.6085091 C569.07662,75.9785091 569.24662,75.3785091 569.44662,74.8185091 C569.23762,74.9185091 569.03662,75.0285091 568.84662,75.1485091 C568.44662,75.3985091 567.96662,74.8985091 568.20662,74.5085091 C569.06662,73.0885091 570.18662,72.1285091 571.46662,71.4785091 C575.00662,67.5485091 653.03562,86.3035091 674.36662,107.368509 C712.99962,145.519509 739.07662,192.688509 756.22662,242.868509 C765.69662,270.558509 774.41662,298.518509 783.42662,326.358509 C792.94662,355.798509 802.88662,385.108509 812.42662,414.528509 C814.51662,420.998509 809.95662,426.878509 804.19662,429.008509 C793.46662,432.968509 782.65662,436.698509 771.75662,440.148509 C777.04662,460.458509 780.74662,481.198509 783.40662,501.998509 C788.89662,544.888509 789.58662,588.648509 798.23762,631.088509 C800.223834,640.829223 802.73688,650.431978 805.391642,660.008866 L806.00662,662.218509 C807.58662,667.838509 809.02762,673.508509 810.96662,679.008509 C812.63662,683.738509 814.79662,688.508509 815.96662,693.388509 C817.33662,699.128509 815.31662,705.398509 809.94662,708.348509 C805.63662,710.718509 799.46662,709.738509 796.86662,705.288509 C796.33662,704.378509 796.01662,703.388509 795.88662,702.388509 C795.49662,701.558509 795.13662,700.708509 794.81662,699.838509 C794.69162,699.503509 794.58162,699.156009 794.47662,698.807259 L794.16662,697.768509 C793.40662,695.288509 792.70662,692.788509 792.00662,690.288509 C790.86662,686.277081 789.719273,682.280346 788.451226,678.304602 L787.80662,676.318509 C784.66662,666.758509 781.85662,657.118509 779.40662,647.358509 C770.638789,612.361899 768.778707,576.128311 766.371649,540.263261 L766.24662,538.408509 C764.06662,506.268509 762.76662,474.198509 765.43662,442.128509 L765.07162,442.247259 L765.07162,442.247259 L764.70662,442.358509 C761.23762,443.418509 757.75662,444.458509 754.26662,445.468509 C754.15662,445.508509 754.05662,445.548509 753.94662,445.578509 C751.713286,446.270176 749.417453,446.92712 747.082268,447.537768 L745.67662,447.898509 L744.68662,448.168509 L743.644451,448.465023 C740.337413,449.424133 736.965667,450.527081 733.53662,450.418509 C727.85662,451.328509 722.07662,451.878509 716.39662,451.898509 C718.14662,480.508509 720.16662,509.098509 722.57662,537.658509 C724.99662,566.368509 728.20662,594.968509 731.53662,623.568509 C733.17662,637.698509 734.93662,651.798509 736.87662,665.878509 C737.85662,673.018509 738.87662,680.118509 740.17662,687.198509 C741.51662,694.438509 743.88662,702.178509 742.45662,709.498509 C742.42662,709.488509 742.39662,709.478509 742.36662,709.478509 C741.88662,711.598509 740.60662,713.498509 738.37662,714.808509 C734.28662,717.198509 728.56662,715.798509 726.21662,711.618509 C726.01662,711.268509 725.82662,710.908509 725.64662,710.538509 C723.23762,711.568509 720.59662,711.968509 717.35662,711.998509 L673.41662,712.438509 L673.41662,712.438509 C653.44662,712.638509 633.47662,712.848509 613.49662,713.138509 C550.767731,714.062954 488.038842,715.12962 425.309953,715.889017 L401.78662,716.158509 C366.50662,716.528509 331.20662,717.258509 295.92662,717.248509 C278.27762,717.248509 260.64662,717.188509 242.99662,716.758509 C234.44662,716.548509 225.91662,716.218509 217.37662,715.868509 L215.86889,715.799589 C209.051138,715.463111 201.812826,714.831613 195.14662,716.358509 C193.30662,719.938509 188.60662,720.678509 186.14662,717.018509 C180.524983,708.643964 178.991,696.95961 177.952441,686.724443 L177.58662,683.038509 C176.43662,671.568509 175.42662,660.098509 174.67662,648.608509 C172.01662,607.898509 171.04662,567.148509 172.26662,526.358509 C172.88662,505.568509 174.79662,484.898509 177.05662,464.228509 C177.76662,457.778509 178.50662,451.338509 179.30662,444.908509 L179.32037,442.622259 C179.32162,441.891009 179.31662,441.193509 179.29662,440.538509 L179.097245,434.33429 C178.93162,429.162806 178.777713,423.988392 178.713651,418.81349 L178.68662,415.708509 L178.65662,409.928509 C173.71662,409.458509 168.44662,407.818509 164.18662,407.028509 C157.27762,405.738509 150.38662,404.348509 143.51662,402.878509 C129.75662,399.918509 116.14662,396.418509 102.62662,392.548509 L99.7512151,391.722609 C87.2759053,388.127948 74.6287624,384.294938 62.8266196,378.918509 C58.2066196,376.808509 53.5966196,374.428509 49.5466196,371.308509 C49.3066196,374.588509 48.9366196,377.858509 48.7166196,381.108509 C48.2776196,387.538509 47.7566196,393.948509 47.3266196,400.378509 L46.9154159,406.496426 C46.2399529,416.690176 45.6316196,426.873509 45.3566196,437.098509 C44.1366196,481.698509 43.9266196,526.488509 46.2866196,571.058509 C47.4566196,593.368509 49.1266196,615.678509 51.5366196,637.898509 C52.7166196,648.828509 53.9666196,659.788509 55.5066196,670.678509 C57.0966196,681.868509 59.9666196,692.988509 60.8466196,704.258509 C61.6866196,715.128509 45.0666196,716.708509 42.3366196,706.768509 C39.067691,694.849938 38.2349614,681.992221 36.5119034,669.737576 L36.3166196,668.378509 C34.4066196,655.358509 32.8766196,642.288509 31.5566196,629.198509 C27,584.048509 25.8166196,538.668509 28.2066196,493.348509 C29.3429159,471.643324 32.0370723,450.021595 35.2979106,428.545831 L35.6766196,426.068509 C37.161064,416.450731 38.5506937,406.832954 40.2317911,397.257316 L40.8766196,393.668509 C42.3866196,385.438509 43.5466196,376.488509 45.9966196,368.258509 L45.2683538,367.586948 C43.9067971,366.318568 42.431235,364.850817 41.3566196,363.268509 C37.6566196,362.768509 34.5066196,360.108509 34.8966196,355.278509 C36.1666196,339.408509 41.9666196,323.268509 47.1366196,308.288509 C52.3266196,293.228509 58.3466196,278.448509 65.1666196,264.048509 C89.1566196,213.438509 123.70662,167.488509 165.95662,130.678509 C188.36662,111.148509 212.92662,93.8285091 240.06662,81.4985091 C253.44662,75.4085091 267.28662,70.6985091 281.78662,68.1585091 C288.96662,66.8985091 296.21662,65.9185091 303.51662,65.7085091 C309.438941,62.2120805 316.470558,63.6833656 322.205126,67.5170707 L322.51662,67.7285091 L322.52762,67.7285091 L323.99662,68.0185091 L323.99662,68.0185091 C324.35662,68.0885091 324.34662,68.6585091 323.99662,68.7385091 C323.97662,68.7385091 323.94662,68.7485091 323.92662,68.7585091 C324.86662,69.4985091 325.75662,70.2885091 326.58662,71.1385091 C329.32662,73.9385091 329.31662,77.3185091 327.90662,80.0485091 C336.29662,87.8285091 341.59662,97.8185091 347.14662,107.888509 C353.09662,118.668509 360.88662,127.988509 370.36662,135.848509 C405.11662,164.668509 456.22662,177.418509 499.76662,163.808509 C531.78662,153.808509 559.13662,126.738509 566.69662,94.1485091 C564.90662,94.7885091 562.96662,94.8885091 561.12662,94.2285091 C552.485985,91.1481916 549.191502,81.7047903 545.886566,73.8093073 L545.72662,73.4285091 C542.49662,65.7785091 539.78662,58.0085091 537.64662,49.9885091 C535.48762,41.8885091 534.21662,33.3385091 533.68662,24.9785091 C533.482074,21.6730545 533.572074,18.3676 533.743013,15.0621454 L533.89482,12.3289891 C534.011624,9.85242019 533.975286,7.32184241 536.05662,5.68850908 Z M395.46712,-16.6014909 C395.58712,-16.9014909 396.05712,-17.0614909 396.23712,-16.7014909 C403.88612,-0.921490921 398.86712,20.6985091 391.63612,35.7485091 C384.06712,51.4885091 372.66712,63.4285091 359.15712,73.7585091 C357.29712,75.1785091 355.38612,76.5785091 353.44712,77.9485091 C342.17612,85.9085091 332.13612,64.4485091 345.14712,60.3485091 C358.70712,53.4585091 369.72712,41.1785091 377.38612,28.2785091 C381.52712,21.3085091 385.19712,14.0485091 388.00712,6.42850908 C390.80712,-1.17149092 392.48712,-9.08149092 395.46712,-16.6014909 Z" id="🖍-Ink" fill="#000"/></g></g><g id="Head" transform="translate(372.000000, 180.000000) scale(0.9978902953586498 1)"><g id="Head/Short 5" stroke="none" stroke-width="1" fill="none" fill-rule="evenodd"><path d="M242.041161,75.2596156 C298.821805,75.2596156 357.551668,119.271611 378.365264,147.356837 C395.864342,170.969555 405.286153,277.745152 405.286153,349.905008 C405.286153,364.996849 413.614596,393.445968 411.184129,407.881894 C402.277902,460.781042 363.475367,505.14576 286.676873,505.14576 C209.87838,505.14576 154.814935,474.704319 97.7325351,392.972519 C70.0358893,392.972519 56.6129701,371.732631 56.4152532,338.213866 C56.2871511,315.868022 65.1995229,300.630067 83.1523686,292.5 C76.7512999,204.313833 81.6113554,148.741029 97.7325351,125.781589 C121.914305,91.3424282 185.260516,75.2596156 242.041161,75.2596156 Z" id="✋-Skin" fill="#ffdbb4"/><path d="M218.1465,56.5559 C253.9965,52.9259 289.1265,55.9759 324.4565,62.2869 C327.1565,62.7759 328.6865,64.5469 329.2555,66.6759 C345.8965,67.4359 362.5565,68.6569 379.1755,69.5669 C385.2065,69.8969 388.6255,75.8559 385.8755,81.2369 C385.3265,82.3059 384.7555,83.3459 384.1755,84.3859 L384.90416,84.145677 C389.903636,82.5418162 395.304128,81.751086 400.1755,84.2969 C406.3755,87.5369 408.8065,94.6859 407.4365,101.2659 C407.0855,102.9459 406.4965,104.5559 405.8265,106.1269 C407.1865,106.0369 408.5565,106.0669 409.9165,106.2469 C417.1565,107.2069 422.5365,112.7569 422.9165,120.1469 C423.4765,131.3059 416.2865,142.6269 407.8165,150.6159 C409.0455,153.1469 409.5165,156.1269 409.0055,159.1469 C407.9855,165.1169 403.5875,168.6919 398.4895,171.0239 C400.6155,177.7749 401.6205,184.8329 401.0275,192.0459 C400.8295,194.4539 398.7235,196.4429 396.5005,196.9309 C404.7865,219.7449 408.9805,244.2389 411.9965,268.1059 C414.1465,285.0869 415.2065,302.1669 415.3355,319.2759 C415.398611,327.000344 415.271302,334.73348 414.947253,342.459154 L414.8165,345.3559 C414.4165,353.7069 414.3965,362.4759 412.8965,370.7369 C418.0165,379.4459 420.0765,390.2569 420.9465,400.0159 C422.0265,412.0959 420.3165,424.5559 416.5055,436.0469 C402.1255,479.4659 358.7265,506.8659 315.1355,513.9869 C274.7865,520.5769 228.0965,511.7069 204.5165,475.0559 C204.1465,474.4759 204.9365,473.9969 205.3965,474.3769 C222.2665,488.0959 241.8355,494.2159 263.0965,497.1959 C299.8565,502.3369 341.1755,493.6159 370.6755,470.4969 C384.8355,459.3969 395.0455,443.2369 399.5365,425.8459 C401.8265,416.9569 402.6165,407.6859 401.7155,398.5369 C400.7955,389.2569 396.6865,381.3369 394.0965,372.5669 C393.2265,369.6059 394.1465,366.8559 395.9565,364.8969 C396.4655,357.7759 397.6665,350.5959 398.1255,343.4969 C398.6355,335.4259 398.9465,327.3559 399.0565,319.2759 C399.2665,302.5159 398.5665,285.7259 397.1565,269.0369 C394.5765,238.4759 387.7265,208.6569 383.7065,178.3559 C382.217833,179.690867 380.0844,180.239031 377.848178,179.072708 L377.6165,178.9459 L376.3965,178.2469 C376.3265,178.2469 376.2465,178.2569 376.1755,178.2659 C367.8265,179.0769 359.1665,177.9169 351.1665,175.4259 C342.7955,172.8269 335.0265,168.8269 328.0855,163.4969 C326.7665,170.1859 326.2155,176.9459 326.2065,183.7659 C326.1965,188.0259 321.6865,190.2369 318.1065,188.4169 C302.2365,180.3559 287.0765,171.0669 272.6865,160.6269 C271.0055,169.2369 269.3265,177.8459 267.6355,186.4659 C266.9865,189.7869 262.7555,191.1269 260.0455,189.5469 C249.2665,183.2759 239.9565,175.0669 232.3765,165.3059 C230.863167,168.1999 229.345389,171.093456 227.817241,173.980641 L225.5165,178.3059 C223.2465,182.5559 220.2065,187.2569 215.2365,188.6159 C209.9765,190.0559 205.5855,186.6469 203.8165,181.8859 C203.2765,180.4069 202.7765,178.8859 202.3165,177.3559 C197.8355,187.5869 192.7765,197.5869 187.0565,207.1269 C178.4765,221.4359 168.1755,234.1859 157.9065,247.2659 C154.7865,251.2369 149.4465,247.4459 149.0165,243.5869 C148.7665,241.3169 148.5565,239.0369 148.3755,236.7659 C142.3915,248.8419 136.1475,260.8049 129.3445,272.4209 L130.3185,276.2379 L130.3185,276.2379 C133.1255,287.5159 135.4565,298.8739 137.9905,310.2119 C138.8085,313.8699 136.8645,319.0999 132.5905,319.7229 C127.4845,320.4669 122.6535,323.0759 117.4235,321.2809 C111.7205,319.3229 110.5935,314.3939 107.9015,309.7219 C107.3645,308.7909 106.7395,307.9359 106.0675,307.1239 L105.8965,307.3459 L105.8965,307.3459 C105.4765,307.8969 104.4765,307.2969 104.7265,306.6669 L105.0195,305.9389 L105.0195,305.9389 C102.7065,303.4839 99.9385,301.4359 97.3935,299.2329 C91.3455,298.2139 84.5425,299.3299 80.3755,301.7869 C70.8855,307.3859 66.5265,318.9259 66.4365,329.5369 C66.3265,341.9569 70.1755,355.9169 76.6755,366.5369 C79.5365,371.2069 83.4565,375.4259 88.6355,377.4969 C93.7765,379.5559 99.3465,378.9169 104.5765,380.8559 C108.0365,382.1469 110.1665,385.9869 108.0765,389.4659 C107.9365,389.7069 107.7765,389.9259 107.6255,390.1569 L109.181019,392.221381 C110.250944,393.651456 111.3665,395.182567 112.4065,396.7759 C115.0665,399.8369 117.8665,402.7869 120.5765,405.7969 C125.5855,411.3459 130.4465,417.0469 135.3755,422.6759 C140.0265,427.9869 144.9465,432.9759 150.0165,437.8859 C154.8065,442.5369 160.7865,446.4459 165.1865,451.4069 C169.4655,456.2469 170.6265,464.6959 163.5855,467.4969 C155.796208,470.60315 148.900566,463.323034 143.657071,458.469499 L143.4365,458.2659 C133.8245,449.4209 125.1445,439.3129 118.2515,428.1839 C111.4235,432.8319 101.5475,433.2759 94.7485,428.6289 C91.1705,426.1839 88.4255,422.0749 87.0915,417.6049 C85.8335,417.8869 84.5765,418.0519 83.3505,418.0329 C82.7195,418.3989 82.0865,418.7549 81.4465,419.0869 C76.3755,421.7259 70.1465,420.5469 67.8265,414.9359 C65.7138913,409.84227 67.8908578,404.057449 69.7937681,399.149752 L70.1865,398.1359 C71.2665,395.3369 72.4565,392.2869 73.9365,389.4169 C69.8165,386.3169 66.2955,382.4659 63.3165,378.0869 C53.3065,363.3369 48.3065,341.7659 50.5165,324.1669 C51.8465,313.5469 56.8355,302.5469 65.0055,295.3859 L64.7065,294.6059 L64.7065,294.6059 C62.4165,288.7969 60.3355,282.9659 58.9865,276.8269 C57.4065,269.6469 56.6355,262.2069 55.9365,254.8969 C54.4565,239.4569 54.8565,223.6669 56.8265,208.2869 C60.5265,179.3369 69.9065,150.9169 86.5565,126.8269 C81.8355,121.1759 78.0965,114.5259 80.0455,106.8769 C80.9365,103.3659 82.9655,100.0369 86.0265,98.0259 C87.7155,96.9169 89.7265,96.7469 91.4165,95.8269 L91.9246563,95.5471104 C92.6669844,95.1139329 92.0991765,95.1598412 91.6565,93.1469 C89.9065,85.1059 91.3565,77.3369 100.2065,74.6669 C108.5365,72.1569 116.4165,77.4869 121.3465,83.8369 C134.2465,74.6859 151.2465,69.8969 166.1965,65.8269 C183.1965,61.2159 200.6355,58.3369 218.1465,56.5559 Z M78.8069,326.2562 C78.7459,319.7062 84.9559,315.6662 91.0669,316.7372 C95.1702571,317.451271 98.5933031,319.90018 101.807624,322.431371 L103.374768,323.671291 C107.288878,326.74416 111.782567,330.056933 114.1159,334.4072 C117.5359,340.8272 110.3069,349.4662 103.5569,344.9662 C98.9265667,341.8632 95.95861,336.891311 92.921411,332.272642 L92.6069,331.7962 C91.2269,329.7262 90.0169,327.5262 88.1259,325.8662 L87.7174162,325.508484 C87.0959496,324.978762 86.4285364,324.495291 85.6259,324.2662 C84.0775129,323.821039 81.2095629,324.444452 80.526766,326.287794 L80.4659,326.4762 C80.2159,327.4072 78.8169,327.2062 78.8069,326.2562 Z" id="🖍-Ink" fill="#000"/></g></g><g id="Face" transform="translate(531.000000, 366.000000) scale(1 1)" fill="#000"><g id="Face/Calm" stroke="none" stroke-width="1" fill="none" fill-rule="evenodd"><path d="M171.041749,240.15887 C163.675125,242.292501 155.767928,242.483273 148.258906,240.279784 C141.4481,238.280984 134.454927,233.882403 129.442325,228.062017 C124.989403,222.891504 122.105494,216.608051 122.218765,209.900917 C122.23165,209.134907 122.505549,208.495522 122.926888,207.999233 C123.380478,207.464958 124.014007,207.098085 124.692682,206.938847 C125.390651,206.775083 126.128513,206.833141 126.756813,207.118539 C127.325595,207.376901 127.812904,207.815736 128.117618,208.457126 C128.887965,209.469087 129.655321,210.466061 130.425688,211.435384 C136.619652,219.083686 142.618023,224.799426 151.931921,226.849502 C156.985367,227.962038 162.032458,227.4687 166.663343,225.771293 C171.620483,223.954301 176.101584,220.7596 179.613092,216.671419 C181.200004,214.823854 183.073535,214.069743 184.905526,214.057068 C186.981571,214.042704 189.033559,215.007378 190.57944,216.549217 C192.09898,218.064783 193.116434,220.124293 193.208649,222.278695 C193.289584,224.169532 192.672753,226.144647 191.031753,227.906756 C185.626535,233.711247 178.621333,237.963558 171.041749,240.15887 Z M170.814304,144.367155 C178.365682,148.9572 189.871664,159.660291 181.748119,171.039573 C172.185929,181.073062 158.418535,169.568982 151.634201,164.366134 C145.343449,160.333898 138.275437,170.704507 144.112,175.412823 C193.135736,211.708059 213.030606,145.567387 174.633685,138.970386 C170.406047,138.243425 168.835891,142.947174 170.814304,144.367155 Z M100.174958,124.170086 C97.7478949,122.617925 94.8928863,122.085145 91.7287079,123.524696 C89.2560287,124.649136 84.9192282,128.39769 81.9011027,133.325394 C79.8363008,136.696603 78.3721211,140.651472 78.6769434,144.770947 C78.7477349,145.727649 78.3942255,146.433054 77.8366311,146.954624 C77.3962557,147.366548 76.7601476,147.669274 76.0129997,147.763908 C75.3786744,147.844253 74.6686661,147.771772 74.0913555,147.591587 C72.9931588,147.248829 72.4119407,146.536464 72.1929489,145.954883 C70.0797393,140.342792 70.9901323,134.080043 73.3585073,128.429944 C76.5547725,120.804793 82.3592783,114.41778 86.1622145,112.358526 C92.669833,108.833475 100.346995,108.671236 106.863929,112.262379 C112.411467,115.318853 115.880218,120.253414 119.330136,125.2834 C120.06351,126.352661 120.791391,127.414081 121.543672,128.456831 C123.05132,130.546275 123.201386,132.618559 122.617532,134.395557 C121.970727,136.36415 120.32151,138.025511 118.259199,138.894957 C116.353068,139.69856 114.140756,139.811681 112.183119,138.985995 C110.529381,138.288488 109.0117,136.92878 108.051384,134.621701 C106.434021,130.736299 103.739338,126.449586 100.174958,124.170086 L100.174958,124.170086 Z M223.440775,132.814369 C221.778563,133.680468 220.478145,133.941602 218.634261,133.389159 C217.614596,133.082886 216.606823,132.495899 215.817824,131.706899 C215.035882,130.924958 214.471712,129.952552 214.252419,128.873803 C213.713072,126.211477 212.256412,123.719368 210.18061,122.094757 C208.406384,120.706172 206.16691,119.97019 203.68291,120.385402 C201.002485,120.832856 198.448729,122.551933 196.689869,124.578687 C196.102007,125.256875 195.641205,126.027105 195.177941,126.792136 C194.311333,128.22283 193.469024,129.552694 192.273843,130.603376 C191.82079,131.003129 191.138107,131.28 190.476901,131.28 C190.208169,131.28 189.935444,131.236271 189.675563,131.155276 C187.007679,128.47758 186.494623,126.446273 186.580635,124.431485 C186.670832,122.318684 187.503809,120.179493 188.849905,118.183565 C192.007516,113.501608 198.002761,109.662839 202.048399,108.79334 C207.588873,107.602708 213.091225,109.031983 217.502758,112.126467 C222.041966,115.310509 225.405508,120.254035 226.454161,125.825144 C226.706431,127.166899 226.599231,128.615171 226.088238,129.870886 C225.588922,131.097909 224.71878,132.148831 223.440775,132.814369 Z M112.394258,74.2526486 C109.069304,77.4921444 105.133931,77.9939318 101.152655,78.4402385 C98.9405594,78.6905522 97.1746454,78.8923401 95.4369094,79.2844431 C90.6605649,80.3626109 85.9393099,81.9864477 81.6319378,84.3250848 C77.1292738,86.7698547 72.2223932,89.7182412 68.6922598,93.4953513 C67.8528342,94.3941678 67.061542,95.3372855 66.2691444,96.2824677 C65.5465882,97.1443561 64.8505415,97.9741006 64.1169766,98.7741419 C63.2745284,99.6930924 62.474532,100.656215 61.6787885,101.616822 C61.1867388,102.427379 61.0895404,102.626735 60.9904523,102.834265 C60.8413425,103.146109 60.6678954,103.495099 60.4697946,103.869494 C60.1984889,104.382242 59.8807027,104.94353 59.5478797,105.452422 C58.9941378,106.382586 58.6970103,106.638799 58.44026,106.753401 C58.0142242,106.943142 57.6101892,107.036611 57.2182099,106.985995 C56.8506749,106.938536 56.5044166,106.762013 56.1624818,106.47304 C54.4554262,105.030757 53.951973,102.663788 54.003574,100.151245 C54.0818781,96.3384852 55.4881691,92.117066 56.7845563,89.5220553 C59.7989145,83.4923568 63.9794222,77.2240967 69.0062346,72.7238372 C74.7422821,67.5868727 81.0177087,63.6979271 88.2256814,61.0181785 C92.7050141,59.3522788 97.8912946,57.8231463 102.771356,58.0162973 C106.284021,58.1553272 109.63736,59.1994956 112.406688,61.8070554 C114.107217,63.4077623 114.923517,65.6846039 114.923517,67.9598329 C114.923517,70.2803828 114.075698,72.6146356 112.394258,74.2526486 Z M230.202983,103.917581 C229.991535,104.264137 229.698869,104.50296 229.373218,104.646395 C229.031839,104.796759 228.650729,104.840068 228.284999,104.778443 C227.920889,104.717091 227.574779,104.552038 227.300232,104.299793 C227.037084,104.058021 226.836702,103.737376 226.747103,103.344559 C224.539595,93.6490336 220.253164,86.4354186 211.104309,81.7836507 C206.603851,79.4952872 201.428751,78.0413484 196.529682,76.8821344 C195.106038,76.5452379 193.601743,76.3269526 192.086825,76.1057581 C187.338965,75.4125185 182.556847,74.6185951 179.461645,70.7808275 C177.596631,68.4690944 176.81391,65.5126371 177.256458,62.8088302 C177.67314,60.2630482 179.160769,57.9287462 181.865031,56.529874 C188.597516,53.048922 196.963943,56.4646469 203.762668,59.3743755 C204.266993,59.5902173 204.762058,59.8021006 205.246454,60.0065439 C211.895078,62.8129721 217.958974,66.5173942 222.943608,71.815137 C226.89868,76.0180237 230.563109,82.2312248 232.038949,88.62289 C233.266795,93.9405248 232.978088,99.3690991 230.202983,103.917581 Z" id="🖍-Ink" fill="#000"/></g></g><g id="Facial Hair" transform="translate(494.999934, 517.999659) scale(1 1)" fill="#000"><g id="Facial Hair/Full" stroke="none" stroke-width="1" fill="none" fill-rule="evenodd"><path d="M117.724748,95.193032 C125.820991,76.2257701 143.491513,62.2858787 163.836481,57.1894344 C178.77663,53.4564466 194.455798,53.5755739 209.685563,55.0571566 C217.664961,55.82798 226.223589,56.4596548 233.743597,59.4228202 C240.165065,61.9545247 245.398112,66.7396365 249.332884,72.3566369 C254.016661,79.0127473 257.202428,86.6308855 259.439456,94.4392268 C259.757034,95.5494127 260.055637,96.6676073 260.334267,97.7918082 C259.36156,103.683102 257.296304,108.697458 251.839554,112.401415 C246.514629,116.018279 240.161071,117.497859 233.827486,118.023421 C233.206311,117.725102 232.606109,117.418775 232.05584,117.104439 C222.185954,111.454403 215.239184,98.1021397 202.781736,99.90907 C191.664507,101.522794 184.34623,115.510737 177.735014,123.713499 C156.513211,126.186141 135.307387,119.809329 118.040329,107.674365 C117.163494,103.520928 117.112562,99.332454 117.724748,95.193032 M274.758103,80.8046615 C273.060358,76.0405723 270.922199,71.4266434 268.387567,67.0800001 C260.0087,52.7056446 247.14579,41.2524095 231.876079,34.7054157 C195.754073,19.2388934 149.016172,30.1415403 119.844931,55.5076378 C109.880171,64.1789009 99.8045583,76.9215133 96.7576067,90.6281556 C95.8478155,90.8083481 94.9889566,91.2818539 94.2818961,91.9485661 C73.2058992,78.6793912 51.5017369,65.9127532 34.5183023,47.519104 C22.1846896,34.1548275 13.6060877,18.338932 8.35306724,0.959366195 C7.92363781,-0.471161978 5.61670297,-0.261938473 5.68661009,1.32075225 C5.70658355,1.69114793 5.72655701,2.06054254 5.74653047,2.43093821 C5.52682239,1.75021102 4.48820238,2.10058531 4.40830853,2.76129112 C1.58206368,23.8738448 -1.95323907,46.2577565 1.30243521,67.4804278 C3.24984774,80.1439557 9.00220475,89.4148595 16.6919876,99.4255535 C24.9310406,110.156016 34.2586473,120.136678 43.7959753,129.707903 C49.8479342,135.783393 56.1695349,142.790879 63.5796892,147.245638 C72.198238,152.421166 81.9752476,156.35637 91.1730268,160.349636 C100.530594,164.423989 110.027975,168.188009 119.705117,171.451496 C139.049415,177.99849 159.04285,182.523323 179.385821,184.505441 C195.674179,186.08713 214.289446,187.809971 229.898706,181.682425 C241.86281,176.98741 251.519978,168.499342 259.179801,158.287433 C267.518721,147.165552 274.110962,134.497019 277.755121,121.137748 C281.542089,107.260924 275.556042,83.0420517 274.758103,80.8046615" id="🖍-Ink" fill="#000"/></g></g><g id="Mask" transform="translate(400.000000, 480.000000) scale(1 1)" fill="#000"><g id="Mask/None" stroke="none" stroke-width="1" fill="none" fill-rule="evenodd" fill-opacity="0"/></g><g id="Accessories" transform="translate(419.000000, 421.000000) scale(1 1)" fill="#000"><g id="Accessories/Glasses 5" stroke="none" stroke-width="1" fill="none" fill-rule="evenodd"><path d="M367.0895,74.4323 C364.2615,82.1283 359.9575,90.1403 354.6945,96.6173 C333.4005,114.6493 312.7095,104.6653 302.2035,80.2263 C298.2115,62.9553 308.8105,44.3513 320.0415,31.6463 C336.2615,15.3893 362.7325,23.9213 370.1905,43.2473 C370.6435,45.7513 370.9175,48.2493 371.0485,50.7393 C370.8935,58.8303 369.9185,65.7453 367.0895,73.4323 M162.4095,58.9113 C190.4615,25.5443 242.9415,23.7603 241.6025,75.1153 C235.5765,140.1193 134.1055,124.1643 162.4095,58.9113 Z M375.9125,31.0763 C374.9295,29.4113 373.8385,27.8003 372.6475,26.2593 C372.2075,25.9973 371.9545,23.6733 370.3365,23.5013 C348.7095,-0.3577 310.7165,13.1793 296.9885,36.9533 C294.4815,39.9593 292.4365,43.4783 290.9285,47.1963 C277.4025,44.7153 261.6335,45.1973 249.0535,50.3063 C236.5795,17.7343 198.8145,14.8263 173.9275,28.7433 C158.4485,36.3563 148.4115,52.2993 133.3575,61.0573 C97.9685,63.6043 59.9875,55.6753 25.2375,64.5523 C-2.1685,70.2503 20.7415,84.1273 25.3375,74.8663 C58.1005,65.1863 96.9155,73.3663 130.9325,71.1853 C134.4695,77.1683 141.2525,82.0643 148.0125,81.8553 C155.3135,146.5763 249.6975,135.8443 252.9535,78.3113 C256.6465,72.4723 261.2395,66.8843 267.8135,63.2463 C270.3305,62.7253 272.7615,62.0483 274.9835,61.0003 C278.7815,60.4643 284.6335,62.0743 288.1275,65.2363 C300.0965,137.0523 369.0515,128.6883 381.3745,65.7743 C381.6195,65.5243 382.3045,64.5863 382.8305,63.0813 C387.0485,57.5043 397.3745,55.4313 395.7245,46.0163 C394.2555,36.5993 382.3635,36.7113 375.9125,31.0763 Z" id="🖍-Ink" fill="#000"/></g></g></g></svg>