<?xml version="1.0" encoding="UTF-8" standalone="no"?>
<svg
   viewBox="165.0270270270271 229.95000000000005 805.9459459459459 1130.5875"
   overflow="visible"
   width="805.9459459459459px"
   height="1130.5875px"
   version="1.1"
   id="svg5"
   sodipodi:docname="sam.svg"
   inkscape:version="1.4 (86a8ad7, 2024-10-11)"
   xmlns:inkscape="http://www.inkscape.org/namespaces/inkscape"
   xmlns:sodipodi="http://sodipodi.sourceforge.net/DTD/sodipodi-0.dtd"
   xmlns="http://www.w3.org/2000/svg"
   xmlns:svg="http://www.w3.org/2000/svg">
  <defs
     id="defs5" />
  <sodipodi:namedview
     id="namedview5"
     pagecolor="#ffffff"
     bordercolor="#666666"
     borderopacity="1.0"
     inkscape:showpageshadow="2"
     inkscape:pageopacity="0.0"
     inkscape:pagecheckerboard="0"
     inkscape:deskcolor="#d1d1d1"
     inkscape:zoom="0.48912622"
     inkscape:cx="403.78126"
     inkscape:cy="565.29376"
     inkscape:window-width="1366"
     inkscape:window-height="705"
     inkscape:window-x="-8"
     inkscape:window-y="-8"
     inkscape:window-maximized="1"
     inkscape:current-layer="Head" />
  <g
     id="Master/Pose/Bust"
     stroke="none"
     stroke-width="1"
     fill="none"
     fill-rule="evenodd">
    <g
       id="Body"
       transform="translate(147.000000, 639.000000) scale(1 1)">
      <path
         d="m 47.99955,350.8883 716.47225,56.87865 0.75021,4.86858 c 12.00583,78.19018 18.07,131.23657 18.19251,159.13917 l 0.002,0.85495 c 0,27.66647 8.4932,71.66793 25.47961,132.00438 l 1.0506,3.71448 -762.94707,1.32919 -9,-181.61181 z M 472.16929,-38.817021 c 29.13225,1.437622 58.49217,13.926744 60.75993,21.908763 5.05059,17.77694564 13.17277,93.873804 39.8822,105.565023 26.70944,11.691215 83.731,1.032678 100.03422,28.952355 16.30323,27.91968 69.84359,141.73229 69.84359,168.25169 0,17.6796 -174.48202,23.81648 -523.44607,18.41063 4.45485,-142.40169 23.02747,-217.257596 55.71786,-224.56773 l 2.91826,-0.644977 c 47.27563,-10.327019 75.53007,-10.659966 91.65728,-27.307343 16.45634,-16.987119 19.44261,-46.1456566 26.26963,-68.659648 3.76162,-12.404993 40.61421,-23.672904 76.3631,-21.908763 z"
         id="âœ‹-Skin"
         fill="#ffdbb4"
         style="fill-rule:evenodd;stroke:none;stroke-width:1;fill:#ffffff;fill-opacity:1" />
      <path
         d="m 536.05662,5.6885091 c 0.11,-0.082776 0.221,-0.11 0.34,-0.05 2.27,1.09 2.74,3.27 3.52,5.5399999 1.14,3.32 2.46,6.56 3.68,9.85 2.431,6.6 4.75,13.19 7.46,19.68 2.78,6.68 5.66,13.24 8.96,19.69 1.59,3.12 3.3,6.18 5.04,9.22 1.2,2.11 2.32,5.01 3.9,6.99 0.12,-0.63 0.29,-1.23 0.49,-1.79 -0.209,0.1 -0.41,0.21 -0.6,0.33 -0.4,0.25 -0.88,-0.25 -0.64,-0.64 0.86,-1.42 1.98,-2.38 3.26,-3.03 3.54,-3.93 81.569,14.825 102.9,35.890001 38.633,38.151 64.71,85.32 81.86,135.5 9.47,27.69 18.19,55.65 27.2,83.49 9.52,29.44 19.46,58.75 29,88.17 2.09,6.47 -2.47,12.35 -8.23,14.48 -10.73,3.96 -21.54,7.69 -32.44,11.14 5.29,20.31 8.99,41.05 11.65,61.85 5.49,42.89 6.18,86.65 14.831,129.09 1.98621,9.74071 4.49926,19.34347 7.15402,28.92036 l 0.61498,2.20964 c 1.58,5.62 3.021,11.29 4.96,16.79 1.67,4.73 3.83,9.5 5,14.38 1.37,5.74 -0.65,12.01 -6.02,14.96 -4.31,2.37 -10.48,1.39 -13.08,-3.06 -0.53,-0.91 -0.85,-1.9 -0.98,-2.9 -0.39,-0.83 -0.75,-1.68 -1.07,-2.55 -0.125,-0.335 -0.235,-0.6825 -0.34,-1.03125 l -0.31,-1.03875 c -0.76,-2.48 -1.46,-4.98 -2.16,-7.48 -1.14,-4.01143 -2.28735,-8.00816 -3.55539,-11.98391 l -0.64461,-1.98609 c -3.14,-9.56 -5.95,-19.2 -8.4,-28.96 -8.76783,-34.99661 -10.62791,-71.2302 -13.03497,-107.09525 l -0.12503,-1.85475 c -2.18,-32.14 -3.48,-64.21 -0.81,-96.28 l -0.365,0.11875 v 0 l -0.365,0.11125 c -3.469,1.06 -6.95,2.1 -10.44,3.11 -0.11,0.04 -0.21,0.08 -0.32,0.11 -2.23333,0.69167 -4.52917,1.34861 -6.86435,1.95926 l -1.40565,0.36074 -0.99,0.27 -1.04217,0.29651 c -3.30704,0.95911 -6.67878,2.06206 -10.10783,1.95349 -5.68,0.91 -11.46,1.46 -17.14,1.48 1.75,28.61 3.77,57.2 6.18,85.76 2.42,28.71 5.63,57.31 8.96,85.91 1.64,14.13 3.4,28.23 5.34,42.31 0.98,7.14 2,14.24 3.3,21.32 1.34,7.24 3.71,14.98 2.28,22.3 -0.03,-0.01 -0.06,-0.02 -0.09,-0.02 -0.48,2.12 -1.76,4.02 -3.99,5.33 -4.09,2.39 -9.81,0.99 -12.16,-3.19 -0.2,-0.35 -0.39,-0.71 -0.57,-1.08 -2.409,1.03 -5.05,1.43 -8.29,1.46 l -43.94,0.44 v 0 c -19.97,0.2 -39.94,0.41 -59.92,0.7 -62.72889,0.92444 -125.45778,1.99111 -188.18667,2.75051 l -23.52333,0.26949 c -35.28,0.37 -70.58,1.1 -105.86,1.09 -17.649,0 -35.28,-0.06 -52.93,-0.49 -8.55,-0.21 -17.08,-0.54 -25.62,-0.89 l -1.50773,-0.0689 c -6.81775,-0.33648 -14.05606,-0.96798 -20.72227,0.55892 -1.84,3.58 -6.54,4.32 -9,0.66 -5.62164,-8.37455 -7.15562,-20.0589 -8.19418,-30.29407 l -0.36582,-3.68593 c -1.15,-11.47 -2.16,-22.94 -2.91,-34.43 -2.66,-40.71 -3.63,-81.46 -2.41,-122.25 0.62,-20.79 2.53,-41.46 4.79,-62.13 0.71,-6.45 1.45,-12.89 2.25,-19.32 l 0.0137,-2.28625 c 10e-4,-0.73125 -0.004,-1.42875 -0.0238,-2.08375 l -0.19938,-6.20422 c -0.16562,-5.17148 -0.31953,-10.3459 -0.38359,-15.5208 l -0.027,-3.10498 -0.03,-5.78 c -4.94,-0.47 -10.21,-2.11 -14.47,-2.9 -6.909,-1.29 -13.8,-2.68 -20.67,-4.15 -13.76,-2.96 -27.37,-6.46 -40.89,-10.33 l -2.875405,-0.8259 c -12.47531,-3.59466 -25.122453,-7.42767 -36.924595,-12.8041 -4.62,-2.11 -9.23,-4.49 -13.28,-7.61 -0.24,3.28 -0.61,6.55 -0.83,9.8 -0.439,6.43 -0.96,12.84 -1.39,19.27 l -0.411204,6.11792 c -0.675463,10.19375 -1.283796,20.37708 -1.558796,30.60208 -1.22,44.6 -1.43,89.39 0.93,133.96 1.17,22.31 2.84,44.62 5.25,66.84 1.18,10.93 2.43,21.89 3.97,32.78 1.59,11.19 4.46,22.31 5.34,33.58 0.84,10.87 -15.78,12.45 -18.51,2.51 -3.268929,-11.91857 -4.101659,-24.77629 -5.824717,-37.03093 l -0.195283,-1.35907 c -1.91,-13.02 -3.44,-26.09 -4.76,-39.18 -4.55662,-45.15 -5.74,-90.53 -3.35,-135.85 1.136296,-21.70519 3.830452,-43.32692 7.091291,-64.80268 l 0.378709,-2.47732 c 1.484444,-9.61778 2.874074,-19.23556 4.555171,-28.81119 l 0.644829,-3.58881 c 1.51,-8.23 2.67,-17.18 5.12,-25.41 l -0.728266,-0.67156 c -1.361557,-1.26838 -2.837119,-2.73613 -3.911734,-4.31844 -3.7,-0.5 -6.85,-3.16 -6.46,-7.99 1.27,-15.87 7.07,-32.01 12.24,-46.99 5.19,-15.06 11.21,-29.84 18.03,-44.24 23.99,-50.61 58.54,-96.56 100.79,-133.37 22.41,-19.53 46.97,-36.850001 74.11,-49.180001 13.38,-6.09 27.22,-10.8 41.72,-13.34 7.18,-1.26 14.43,-2.24 21.73,-2.45 5.92232,-3.496429 12.95394,-2.025143 18.68851,1.808562 l 0.31149,0.211438 h 0.011 l 1.469,0.29 v 0 c 0.36,0.07 0.35,0.64 0,0.72 -0.02,0 -0.05,0.01 -0.07,0.02 0.94,0.74 1.83,1.53 2.66,2.38 2.74,2.8 2.73,6.18 1.32,8.91 8.39,7.78 13.69,17.77 19.24,27.840001 5.95,10.78 13.74,20.1 23.22,27.96 34.75,28.82 85.86,41.57 129.4,27.96 32.02,-10 59.37,-37.07 66.93,-69.660001 -1.79,0.64 -3.73,0.74 -5.57,0.08 C 552.48599,91.148192 549.1915,81.70479 545.88657,73.809307 l -0.15995,-0.380798 c -3.23,-7.65 -5.94,-15.42 -8.08,-23.44 -2.159,-8.1 -3.43,-16.65 -3.96,-25.01 -0.20455,-3.305455 -0.11455,-6.610909 0.0564,-9.916364 l 0.15181,-2.733156 c 0.1168,-2.4765688 0.0805,-5.0071466 2.1618,-6.6404799 z M 395.46712,-16.601491 c 0.12,-0.3 0.59,-0.46 0.77,-0.1 7.649,15.78000008 2.63,37.4 -4.601,52.45 -7.569,15.74 -18.969,27.68 -32.479,38.01 -1.86,1.42 -3.771,2.82 -5.71,4.19 -11.271,7.96 -21.311,-13.5 -8.3,-17.6 13.56,-6.89 24.58,-19.17 32.239,-32.07 4.141,-6.97 7.811,-14.23 10.621,-21.8499999 2.8,-7.6 4.48,-15.51 7.46,-23.0300001 z"
         id="ðŸ–-Ink"
         fill="#000000"
         style="fill-rule:evenodd;stroke:none;stroke-width:1" />
    </g>
    <g
       id="Head"
       transform="translate(372.000000, 180.000000) scale(0.9978902953586498 1)">
      <path
         d="m 242.04116,75.259616 c 56.78064,0 115.51051,44.011994 136.3241,72.097224 17.49908,23.61272 26.92089,130.38831 26.92089,202.54817 0,15.09184 8.32845,43.54096 5.89798,57.97688 -8.90623,52.89915 -47.70876,97.26387 -124.50726,97.26387 -76.79849,0 -131.86194,-30.44144 -188.944335,-112.17324 -27.696646,0 -41.119565,-21.23989 -41.317282,-54.75865 C 56.287151,315.86802 65.199523,300.63007 83.152369,292.5 76.7513,204.31383 81.611355,148.74103 97.732535,125.78159 121.91431,91.342428 185.26052,75.259616 242.04116,75.259616 Z"
         id="path1"
         fill="#ffdbb4"
         style="fill-rule:evenodd;stroke:none;stroke-width:1;fill:#ffffff;fill-opacity:1" />
      <path
         d="m 218.1465,56.5559 c 35.85,-3.63 70.98,-0.58 106.31,5.731 2.7,0.489 4.23,2.26 4.799,4.389 16.641,0.76 33.301,1.981 49.92,2.891 6.031,0.33 9.45,6.289 6.7,11.67 -0.549,1.069 -1.12,2.109 -1.7,3.149 l 0.72866,-0.240223 c 4.99948,-1.603861 10.39997,-2.394591 15.27134,0.151223 6.2,3.24 8.631,10.389 7.261,16.969 -0.351,1.68 -0.94,3.29 -1.61,4.861 1.36,-0.09 2.73,-0.06 4.09,0.12 7.24,0.96 12.62,6.51 13,13.9 0.56,11.159 -6.63,22.48 -15.1,30.469 1.229,2.531 1.7,5.511 1.189,8.531 -1.02,5.97 -5.418,9.545 -10.516,11.877 2.126,6.751 3.131,13.809 2.538,21.022 -0.198,2.408 -2.304,4.397 -4.527,4.885 8.286,22.814 12.48,47.308 15.496,71.175 2.15,16.981 3.21,34.061 3.339,51.17 0.0631,7.72444 -0.0642,15.45758 -0.38825,23.18325 l -0.13075,2.89675 c -0.4,8.351 -0.42,17.12 -1.92,25.381 5.12,8.709 7.18,19.52 8.05,29.279 1.08,12.08 -0.63,24.54 -4.441,36.031 -14.38,43.419 -57.779,70.819 -101.37,77.94 -40.349,6.59 -87.039,-2.28 -110.619,-38.931 -0.37,-0.58 0.42,-1.059 0.88,-0.679 16.87,13.719 36.439,19.839 57.7,22.819 36.76,5.141 78.079,-3.58 107.579,-26.699 14.16,-11.1 24.37,-27.26 28.861,-44.651 2.29,-8.889 3.08,-18.16 2.179,-27.309 -0.92,-9.28 -5.029,-17.2 -7.619,-25.97 -0.87,-2.961 0.05,-5.711 1.86,-7.67 0.509,-7.121 1.71,-14.301 2.169,-21.4 0.51,-8.071 0.821,-16.141 0.931,-24.221 0.21,-16.76 -0.49,-33.55 -1.9,-50.239 -2.58,-30.561 -9.43,-60.38 -13.45,-90.681 -1.48867,1.33497 -3.6221,1.88313 -5.85832,0.71681 l -0.23168,-0.12681 -1.22,-0.699 c -0.07,0 -0.15,0.01 -0.221,0.019 -8.349,0.811 -17.009,-0.349 -25.009,-2.84 -8.371,-2.599 -16.14,-6.599 -23.081,-11.929 -1.319,6.689 -1.87,13.449 -1.879,20.269 -0.01,4.26 -4.52,6.471 -8.1,4.651 -15.87,-8.061 -31.03,-17.35 -45.42,-27.79 -1.681,8.61 -3.36,17.219 -5.051,25.839 -0.649,3.321 -4.88,4.661 -7.59,3.081 -10.779,-6.271 -20.089,-14.48 -27.669,-24.241 -1.51333,2.894 -3.03111,5.78756 -4.55926,8.67474 l -2.30074,4.32526 c -2.27,4.25 -5.31,8.951 -10.28,10.31 -5.26,1.44 -9.651,-1.969 -11.42,-6.73 -0.54,-1.479 -1.04,-3 -1.5,-4.53 -4.481,10.231 -9.54,20.231 -15.26,29.771 -8.58,14.309 -18.881,27.059 -29.15,40.139 -3.12,3.971 -8.46,0.18 -8.89,-3.679 -0.25,-2.27 -0.46,-4.55 -0.641,-6.821 -5.984,12.076 -12.228,24.039 -19.031,35.655 l 0.974,3.817 v 0 c 2.807,11.278 5.138,22.636 7.672,33.974 0.818,3.658 -1.126,8.888 -5.4,9.511 -5.106,0.744 -9.937,3.353 -15.167,1.558 -5.703,-1.958 -6.83,-6.887 -9.522,-11.559 -0.537,-0.931 -1.162,-1.786 -1.834,-2.598 l -0.171,0.222 v 0 c -0.42,0.551 -1.42,-0.049 -1.17,-0.679 l 0.293,-0.728 v 0 c -2.313,-2.455 -5.081,-4.503 -7.626,-6.706 -6.048,-1.019 -12.851,0.097 -17.018,2.554 -9.49,5.599 -13.849,17.139 -13.939,27.75 -0.11,12.42 3.739,26.38 10.239,37 2.861,4.67 6.781,8.889 11.96,10.96 5.141,2.059 10.711,1.42 15.941,3.359 3.46,1.291 5.59,5.131 3.5,8.61 -0.14,0.241 -0.3,0.46 -0.451,0.691 l 1.55552,2.06448 c 1.06992,1.43008 2.18548,2.96119 3.22548,4.55452 2.66,3.061 5.46,6.011 8.17,9.021 5.009,5.549 9.87,11.25 14.799,16.879 4.651,5.311 9.571,10.3 14.641,15.21 4.79,4.651 10.77,8.56 15.17,13.521 4.279,4.84 5.44,13.289 -1.601,16.09 -7.78929,3.10625 -14.68493,-4.17387 -19.92843,-9.0274 l -0.22057,-0.2036 c -9.612,-8.845 -18.292,-18.953 -25.185,-30.082 -6.828,4.648 -16.704,5.092 -23.503,0.445 -3.578,-2.445 -6.323,-6.554 -7.657,-11.024 -1.258,0.282 -2.515,0.447 -3.741,0.428 -0.631,0.366 -1.264,0.722 -1.904,1.054 -5.071,2.639 -11.3,1.46 -13.62,-4.151 -2.112609,-5.09363 0.06436,-10.87845 1.967268,-15.78615 L 70.1865,398.1359 c 1.08,-2.799 2.27,-5.849 3.75,-8.719 -4.12,-3.1 -7.641,-6.951 -10.62,-11.33 -10.01,-14.75 -15.01,-36.321 -12.8,-53.92 1.33,-10.62 6.319,-21.62 14.489,-28.781 l -0.299,-0.78 v 0 c -2.29,-5.809 -4.371,-11.64 -5.72,-17.779 -1.58,-7.18 -2.351,-14.62 -3.05,-21.93 -1.48,-15.44 -1.08,-31.23 0.89,-46.61 3.7,-28.95 13.08,-57.37 29.73,-81.46 -4.721,-5.651 -8.46,-12.301 -6.511,-19.95 0.891,-3.511 2.92,-6.84 5.981,-8.851 1.689,-1.109 3.7,-1.279 5.39,-2.199 l 0.508156,-0.27979 c 0.742328,-0.433177 0.17452,-0.387269 -0.268156,-2.40021 -1.75,-8.041 -0.3,-15.81 8.55,-18.48 8.33,-2.51 16.21,2.82 21.14,9.17 12.9,-9.151 29.9,-13.94 44.85,-18.01 17,-4.611 34.439,-7.49 51.95,-9.271 z M 78.8069,326.2562 c -0.061,-6.55 6.149,-10.59 12.26,-9.519 4.103357,0.71407 7.526403,3.16298 10.74072,5.69417 l 1.56715,1.23992 c 3.91411,3.07287 8.4078,6.38564 10.74113,10.73591 3.42,6.42 -3.809,15.059 -10.559,10.559 -4.630333,-3.103 -7.59829,-8.07489 -10.635489,-12.69356 L 92.6069,331.7962 c -1.38,-2.07 -2.59,-4.27 -4.481,-5.93 l -0.408484,-0.35772 c -0.621466,-0.52972 -1.28888,-1.01319 -2.091516,-1.24228 -1.548387,-0.44516 -4.416337,0.17825 -5.099134,2.02159 l -0.06087,0.18841 c -0.25,0.931 -1.649,0.73 -1.659,-0.22 z"
         id="path2"
         fill="#000000"
         style="fill-rule:evenodd;stroke:none;stroke-width:1" />
    </g>
    <g
       id="Face"
       transform="translate(531.000000, 366.000000) scale(1 1)"
       fill="#000">
      <g
         id="Face/Calm"
         stroke="none"
         stroke-width="1"
         fill="none"
         fill-rule="evenodd">
        <path
           d="M171.041749,240.15887 C163.675125,242.292501 155.767928,242.483273 148.258906,240.279784 C141.4481,238.280984 134.454927,233.882403 129.442325,228.062017 C124.989403,222.891504 122.105494,216.608051 122.218765,209.900917 C122.23165,209.134907 122.505549,208.495522 122.926888,207.999233 C123.380478,207.464958 124.014007,207.098085 124.692682,206.938847 C125.390651,206.775083 126.128513,206.833141 126.756813,207.118539 C127.325595,207.376901 127.812904,207.815736 128.117618,208.457126 C128.887965,209.469087 129.655321,210.466061 130.425688,211.435384 C136.619652,219.083686 142.618023,224.799426 151.931921,226.849502 C156.985367,227.962038 162.032458,227.4687 166.663343,225.771293 C171.620483,223.954301 176.101584,220.7596 179.613092,216.671419 C181.200004,214.823854 183.073535,214.069743 184.905526,214.057068 C186.981571,214.042704 189.033559,215.007378 190.57944,216.549217 C192.09898,218.064783 193.116434,220.124293 193.208649,222.278695 C193.289584,224.169532 192.672753,226.144647 191.031753,227.906756 C185.626535,233.711247 178.621333,237.963558 171.041749,240.15887 Z M170.814304,144.367155 C178.365682,148.9572 189.871664,159.660291 181.748119,171.039573 C172.185929,181.073062 158.418535,169.568982 151.634201,164.366134 C145.343449,160.333898 138.275437,170.704507 144.112,175.412823 C193.135736,211.708059 213.030606,145.567387 174.633685,138.970386 C170.406047,138.243425 168.835891,142.947174 170.814304,144.367155 Z M100.174958,124.170086 C97.7478949,122.617925 94.8928863,122.085145 91.7287079,123.524696 C89.2560287,124.649136 84.9192282,128.39769 81.9011027,133.325394 C79.8363008,136.696603 78.3721211,140.651472 78.6769434,144.770947 C78.7477349,145.727649 78.3942255,146.433054 77.8366311,146.954624 C77.3962557,147.366548 76.7601476,147.669274 76.0129997,147.763908 C75.3786744,147.844253 74.6686661,147.771772 74.0913555,147.591587 C72.9931588,147.248829 72.4119407,146.536464 72.1929489,145.954883 C70.0797393,140.342792 70.9901323,134.080043 73.3585073,128.429944 C76.5547725,120.804793 82.3592783,114.41778 86.1622145,112.358526 C92.669833,108.833475 100.346995,108.671236 106.863929,112.262379 C112.411467,115.318853 115.880218,120.253414 119.330136,125.2834 C120.06351,126.352661 120.791391,127.414081 121.543672,128.456831 C123.05132,130.546275 123.201386,132.618559 122.617532,134.395557 C121.970727,136.36415 120.32151,138.025511 118.259199,138.894957 C116.353068,139.69856 114.140756,139.811681 112.183119,138.985995 C110.529381,138.288488 109.0117,136.92878 108.051384,134.621701 C106.434021,130.736299 103.739338,126.449586 100.174958,124.170086 L100.174958,124.170086 Z M223.440775,132.814369 C221.778563,133.680468 220.478145,133.941602 218.634261,133.389159 C217.614596,133.082886 216.606823,132.495899 215.817824,131.706899 C215.035882,130.924958 214.471712,129.952552 214.252419,128.873803 C213.713072,126.211477 212.256412,123.719368 210.18061,122.094757 C208.406384,120.706172 206.16691,119.97019 203.68291,120.385402 C201.002485,120.832856 198.448729,122.551933 196.689869,124.578687 C196.102007,125.256875 195.641205,126.027105 195.177941,126.792136 C194.311333,128.22283 193.469024,129.552694 192.273843,130.603376 C191.82079,131.003129 191.138107,131.28 190.476901,131.28 C190.208169,131.28 189.935444,131.236271 189.675563,131.155276 C187.007679,128.47758 186.494623,126.446273 186.580635,124.431485 C186.670832,122.318684 187.503809,120.179493 188.849905,118.183565 C192.007516,113.501608 198.002761,109.662839 202.048399,108.79334 C207.588873,107.602708 213.091225,109.031983 217.502758,112.126467 C222.041966,115.310509 225.405508,120.254035 226.454161,125.825144 C226.706431,127.166899 226.599231,128.615171 226.088238,129.870886 C225.588922,131.097909 224.71878,132.148831 223.440775,132.814369 Z M112.394258,74.2526486 C109.069304,77.4921444 105.133931,77.9939318 101.152655,78.4402385 C98.9405594,78.6905522 97.1746454,78.8923401 95.4369094,79.2844431 C90.6605649,80.3626109 85.9393099,81.9864477 81.6319378,84.3250848 C77.1292738,86.7698547 72.2223932,89.7182412 68.6922598,93.4953513 C67.8528342,94.3941678 67.061542,95.3372855 66.2691444,96.2824677 C65.5465882,97.1443561 64.8505415,97.9741006 64.1169766,98.7741419 C63.2745284,99.6930924 62.474532,100.656215 61.6787885,101.616822 C61.1867388,102.427379 61.0895404,102.626735 60.9904523,102.834265 C60.8413425,103.146109 60.6678954,103.495099 60.4697946,103.869494 C60.1984889,104.382242 59.8807027,104.94353 59.5478797,105.452422 C58.9941378,106.382586 58.6970103,106.638799 58.44026,106.753401 C58.0142242,106.943142 57.6101892,107.036611 57.2182099,106.985995 C56.8506749,106.938536 56.5044166,106.762013 56.1624818,106.47304 C54.4554262,105.030757 53.951973,102.663788 54.003574,100.151245 C54.0818781,96.3384852 55.4881691,92.117066 56.7845563,89.5220553 C59.7989145,83.4923568 63.9794222,77.2240967 69.0062346,72.7238372 C74.7422821,67.5868727 81.0177087,63.6979271 88.2256814,61.0181785 C92.7050141,59.3522788 97.8912946,57.8231463 102.771356,58.0162973 C106.284021,58.1553272 109.63736,59.1994956 112.406688,61.8070554 C114.107217,63.4077623 114.923517,65.6846039 114.923517,67.9598329 C114.923517,70.2803828 114.075698,72.6146356 112.394258,74.2526486 Z M230.202983,103.917581 C229.991535,104.264137 229.698869,104.50296 229.373218,104.646395 C229.031839,104.796759 228.650729,104.840068 228.284999,104.778443 C227.920889,104.717091 227.574779,104.552038 227.300232,104.299793 C227.037084,104.058021 226.836702,103.737376 226.747103,103.344559 C224.539595,93.6490336 220.253164,86.4354186 211.104309,81.7836507 C206.603851,79.4952872 201.428751,78.0413484 196.529682,76.8821344 C195.106038,76.5452379 193.601743,76.3269526 192.086825,76.1057581 C187.338965,75.4125185 182.556847,74.6185951 179.461645,70.7808275 C177.596631,68.4690944 176.81391,65.5126371 177.256458,62.8088302 C177.67314,60.2630482 179.160769,57.9287462 181.865031,56.529874 C188.597516,53.048922 196.963943,56.4646469 203.762668,59.3743755 C204.266993,59.5902173 204.762058,59.8021006 205.246454,60.0065439 C211.895078,62.8129721 217.958974,66.5173942 222.943608,71.815137 C226.89868,76.0180237 230.563109,82.2312248 232.038949,88.62289 C233.266795,93.9405248 232.978088,99.3690991 230.202983,103.917581 Z"
           id="path3"
           fill="#000" />
      </g>
    </g>
    <g
       id="Facial Hair"
       transform="translate(494.999934, 517.999659) scale(1 1)"
       fill="#000">
      <g
         id="Facial Hair/Full"
         stroke="none"
         stroke-width="1"
         fill="none"
         fill-rule="evenodd">
        <path
           d="M117.724748,95.193032 C125.820991,76.2257701 143.491513,62.2858787 163.836481,57.1894344 C178.77663,53.4564466 194.455798,53.5755739 209.685563,55.0571566 C217.664961,55.82798 226.223589,56.4596548 233.743597,59.4228202 C240.165065,61.9545247 245.398112,66.7396365 249.332884,72.3566369 C254.016661,79.0127473 257.202428,86.6308855 259.439456,94.4392268 C259.757034,95.5494127 260.055637,96.6676073 260.334267,97.7918082 C259.36156,103.683102 257.296304,108.697458 251.839554,112.401415 C246.514629,116.018279 240.161071,117.497859 233.827486,118.023421 C233.206311,117.725102 232.606109,117.418775 232.05584,117.104439 C222.185954,111.454403 215.239184,98.1021397 202.781736,99.90907 C191.664507,101.522794 184.34623,115.510737 177.735014,123.713499 C156.513211,126.186141 135.307387,119.809329 118.040329,107.674365 C117.163494,103.520928 117.112562,99.332454 117.724748,95.193032 M274.758103,80.8046615 C273.060358,76.0405723 270.922199,71.4266434 268.387567,67.0800001 C260.0087,52.7056446 247.14579,41.2524095 231.876079,34.7054157 C195.754073,19.2388934 149.016172,30.1415403 119.844931,55.5076378 C109.880171,64.1789009 99.8045583,76.9215133 96.7576067,90.6281556 C95.8478155,90.8083481 94.9889566,91.2818539 94.2818961,91.9485661 C73.2058992,78.6793912 51.5017369,65.9127532 34.5183023,47.519104 C22.1846896,34.1548275 13.6060877,18.338932 8.35306724,0.959366195 C7.92363781,-0.471161978 5.61670297,-0.261938473 5.68661009,1.32075225 C5.70658355,1.69114793 5.72655701,2.06054254 5.74653047,2.43093821 C5.52682239,1.75021102 4.48820238,2.10058531 4.40830853,2.76129112 C1.58206368,23.8738448 -1.95323907,46.2577565 1.30243521,67.4804278 C3.24984774,80.1439557 9.00220475,89.4148595 16.6919876,99.4255535 C24.9310406,110.156016 34.2586473,120.136678 43.7959753,129.707903 C49.8479342,135.783393 56.1695349,142.790879 63.5796892,147.245638 C72.198238,152.421166 81.9752476,156.35637 91.1730268,160.349636 C100.530594,164.423989 110.027975,168.188009 119.705117,171.451496 C139.049415,177.99849 159.04285,182.523323 179.385821,184.505441 C195.674179,186.08713 214.289446,187.809971 229.898706,181.682425 C241.86281,176.98741 251.519978,168.499342 259.179801,158.287433 C267.518721,147.165552 274.110962,134.497019 277.755121,121.137748 C281.542089,107.260924 275.556042,83.0420517 274.758103,80.8046615"
           id="path4"
           fill="#000" />
      </g>
    </g>
    <g
       id="Mask"
       transform="translate(400.000000, 480.000000) scale(1 1)"
       fill="#000">
      <g
         id="Mask/None"
         stroke="none"
         stroke-width="1"
         fill="none"
         fill-rule="evenodd"
         fill-opacity="0" />
    </g>
    <g
       id="Accessories"
       transform="translate(419.000000, 421.000000) scale(1 1)"
       fill="#000">
      <g
         id="Accessories/Glasses 5"
         stroke="none"
         stroke-width="1"
         fill="none"
         fill-rule="evenodd">
        <path
           d="M367.0895,74.4323 C364.2615,82.1283 359.9575,90.1403 354.6945,96.6173 C333.4005,114.6493 312.7095,104.6653 302.2035,80.2263 C298.2115,62.9553 308.8105,44.3513 320.0415,31.6463 C336.2615,15.3893 362.7325,23.9213 370.1905,43.2473 C370.6435,45.7513 370.9175,48.2493 371.0485,50.7393 C370.8935,58.8303 369.9185,65.7453 367.0895,73.4323 M162.4095,58.9113 C190.4615,25.5443 242.9415,23.7603 241.6025,75.1153 C235.5765,140.1193 134.1055,124.1643 162.4095,58.9113 Z M375.9125,31.0763 C374.9295,29.4113 373.8385,27.8003 372.6475,26.2593 C372.2075,25.9973 371.9545,23.6733 370.3365,23.5013 C348.7095,-0.3577 310.7165,13.1793 296.9885,36.9533 C294.4815,39.9593 292.4365,43.4783 290.9285,47.1963 C277.4025,44.7153 261.6335,45.1973 249.0535,50.3063 C236.5795,17.7343 198.8145,14.8263 173.9275,28.7433 C158.4485,36.3563 148.4115,52.2993 133.3575,61.0573 C97.9685,63.6043 59.9875,55.6753 25.2375,64.5523 C-2.1685,70.2503 20.7415,84.1273 25.3375,74.8663 C58.1005,65.1863 96.9155,73.3663 130.9325,71.1853 C134.4695,77.1683 141.2525,82.0643 148.0125,81.8553 C155.3135,146.5763 249.6975,135.8443 252.9535,78.3113 C256.6465,72.4723 261.2395,66.8843 267.8135,63.2463 C270.3305,62.7253 272.7615,62.0483 274.9835,61.0003 C278.7815,60.4643 284.6335,62.0743 288.1275,65.2363 C300.0965,137.0523 369.0515,128.6883 381.3745,65.7743 C381.6195,65.5243 382.3045,64.5863 382.8305,63.0813 C387.0485,57.5043 397.3745,55.4313 395.7245,46.0163 C394.2555,36.5993 382.3635,36.7113 375.9125,31.0763 Z"
           id="path5"
           fill="#000" />
      </g>
    </g>
  </g>
</svg>
