<?xml version="1.0" encoding="UTF-8" standalone="no"?>
<svg
   viewBox="165.02703 229.95 400.00001 399.99999"
   overflow="visible"
   width="400"
   height="400"
   version="1.1"
   id="svg5"
   sodipodi:docname="samhead.svg"
   inkscape:version="1.4 (86a8ad7, 2024-10-11)"
   inkscape:export-filename="samhead.png"
   inkscape:export-xdpi="122.88"
   inkscape:export-ydpi="122.88"
   xmlns:inkscape="http://www.inkscape.org/namespaces/inkscape"
   xmlns:sodipodi="http://sodipodi.sourceforge.net/DTD/sodipodi-0.dtd"
   xmlns="http://www.w3.org/2000/svg"
   xmlns:svg="http://www.w3.org/2000/svg">
  <defs
     id="defs5" />
  <sodipodi:namedview
     id="namedview5"
     pagecolor="#ffffff"
     bordercolor="#666666"
     borderopacity="1.0"
     inkscape:showpageshadow="2"
     inkscape:pageopacity="0.0"
     inkscape:pagecheckerboard="0"
     inkscape:deskcolor="#d1d1d1"
     inkscape:zoom="0.48912622"
     inkscape:cx="387.42556"
     inkscape:cy="550.98253"
     inkscape:window-width="1366"
     inkscape:window-height="705"
     inkscape:window-x="-8"
     inkscape:window-y="-8"
     inkscape:window-maximized="1"
     inkscape:current-layer="Master/Pose/Bust" />
  <g
     id="Master/Pose/Bust"
     stroke="none"
     stroke-width="1"
     fill="none"
     fill-rule="evenodd"
     transform="translate(-15.621202,-15.271842)">
    <g
       id="Head"
       transform="matrix(0.83694043,0,0,0.83870986,171.5124,203.18211)">
      <path
         d="m 242.04116,75.259616 c 56.78064,0 115.51051,44.011994 136.3241,72.097224 17.49908,23.61272 26.92089,130.38831 26.92089,202.54817 0,15.09184 8.32845,43.54096 5.89798,57.97688 -8.90623,52.89915 -47.70876,97.26387 -124.50726,97.26387 -76.79849,0 -131.86194,-30.44144 -188.944335,-112.17324 -27.696646,0 -41.119565,-21.23989 -41.317282,-54.75865 C 56.287151,315.86802 65.199523,300.63007 83.152369,292.5 76.7513,204.31383 81.611355,148.74103 97.732535,125.78159 121.91431,91.342428 185.26052,75.259616 242.04116,75.259616 Z"
         id="path1"
         fill="#ffdbb4"
         style="fill:#ffffff;fill-opacity:1;fill-rule:evenodd;stroke:none;stroke-width:1" />
      <path
         d="m 218.1465,56.5559 c 35.85,-3.63 70.98,-0.58 106.31,5.731 2.7,0.489 4.23,2.26 4.799,4.389 16.641,0.76 33.301,1.981 49.92,2.891 6.031,0.33 9.45,6.289 6.7,11.67 -0.549,1.069 -1.12,2.109 -1.7,3.149 l 0.72866,-0.240223 c 4.99948,-1.603861 10.39997,-2.394591 15.27134,0.151223 6.2,3.24 8.631,10.389 7.261,16.969 -0.351,1.68 -0.94,3.29 -1.61,4.861 1.36,-0.09 2.73,-0.06 4.09,0.12 7.24,0.96 12.62,6.51 13,13.9 0.56,11.159 -6.63,22.48 -15.1,30.469 1.229,2.531 1.7,5.511 1.189,8.531 -1.02,5.97 -5.418,9.545 -10.516,11.877 2.126,6.751 3.131,13.809 2.538,21.022 -0.198,2.408 -2.304,4.397 -4.527,4.885 8.286,22.814 12.48,47.308 15.496,71.175 2.15,16.981 3.21,34.061 3.339,51.17 0.0631,7.72444 -0.0642,15.45758 -0.38825,23.18325 l -0.13075,2.89675 c -0.4,8.351 -0.42,17.12 -1.92,25.381 5.12,8.709 7.18,19.52 8.05,29.279 1.08,12.08 -0.63,24.54 -4.441,36.031 -14.38,43.419 -57.779,70.819 -101.37,77.94 -40.349,6.59 -87.039,-2.28 -110.619,-38.931 -0.37,-0.58 0.42,-1.059 0.88,-0.679 16.87,13.719 36.439,19.839 57.7,22.819 36.76,5.141 78.079,-3.58 107.579,-26.699 14.16,-11.1 24.37,-27.26 28.861,-44.651 2.29,-8.889 3.08,-18.16 2.179,-27.309 -0.92,-9.28 -5.029,-17.2 -7.619,-25.97 -0.87,-2.961 0.05,-5.711 1.86,-7.67 0.509,-7.121 1.71,-14.301 2.169,-21.4 0.51,-8.071 0.821,-16.141 0.931,-24.221 0.21,-16.76 -0.49,-33.55 -1.9,-50.239 -2.58,-30.561 -9.43,-60.38 -13.45,-90.681 -1.48867,1.33497 -3.6221,1.88313 -5.85832,0.71681 l -0.23168,-0.12681 -1.22,-0.699 c -0.07,0 -0.15,0.01 -0.221,0.019 -8.349,0.811 -17.009,-0.349 -25.009,-2.84 -8.371,-2.599 -16.14,-6.599 -23.081,-11.929 -1.319,6.689 -1.87,13.449 -1.879,20.269 -0.01,4.26 -4.52,6.471 -8.1,4.651 -15.87,-8.061 -31.03,-17.35 -45.42,-27.79 -1.681,8.61 -3.36,17.219 -5.051,25.839 -0.649,3.321 -4.88,4.661 -7.59,3.081 -10.779,-6.271 -20.089,-14.48 -27.669,-24.241 -1.51333,2.894 -3.03111,5.78756 -4.55926,8.67474 l -2.30074,4.32526 c -2.27,4.25 -5.31,8.951 -10.28,10.31 -5.26,1.44 -9.651,-1.969 -11.42,-6.73 -0.54,-1.479 -1.04,-3 -1.5,-4.53 -4.481,10.231 -9.54,20.231 -15.26,29.771 -8.58,14.309 -18.881,27.059 -29.15,40.139 -3.12,3.971 -8.46,0.18 -8.89,-3.679 -0.25,-2.27 -0.46,-4.55 -0.641,-6.821 -5.984,12.076 -12.228,24.039 -19.031,35.655 l 0.974,3.817 v 0 c 2.807,11.278 5.138,22.636 7.672,33.974 0.818,3.658 -1.126,8.888 -5.4,9.511 -5.106,0.744 -9.937,3.353 -15.167,1.558 -5.703,-1.958 -6.83,-6.887 -9.522,-11.559 -0.537,-0.931 -1.162,-1.786 -1.834,-2.598 l -0.171,0.222 v 0 c -0.42,0.551 -1.42,-0.049 -1.17,-0.679 l 0.293,-0.728 v 0 c -2.313,-2.455 -5.081,-4.503 -7.626,-6.706 -6.048,-1.019 -12.851,0.097 -17.018,2.554 -9.49,5.599 -13.849,17.139 -13.939,27.75 -0.11,12.42 3.739,26.38 10.239,37 2.861,4.67 6.781,8.889 11.96,10.96 5.141,2.059 10.711,1.42 15.941,3.359 3.46,1.291 5.59,5.131 3.5,8.61 -0.14,0.241 -0.3,0.46 -0.451,0.691 l 1.55552,2.06448 c 1.06992,1.43008 2.18548,2.96119 3.22548,4.55452 2.66,3.061 5.46,6.011 8.17,9.021 5.009,5.549 9.87,11.25 14.799,16.879 4.651,5.311 9.571,10.3 14.641,15.21 4.79,4.651 10.77,8.56 15.17,13.521 4.279,4.84 5.44,13.289 -1.601,16.09 -7.78929,3.10625 -14.68493,-4.17387 -19.92843,-9.0274 l -0.22057,-0.2036 c -9.612,-8.845 -18.292,-18.953 -25.185,-30.082 -6.828,4.648 -16.704,5.092 -23.503,0.445 -3.578,-2.445 -6.323,-6.554 -7.657,-11.024 -1.258,0.282 -2.515,0.447 -3.741,0.428 -0.631,0.366 -1.264,0.722 -1.904,1.054 -5.071,2.639 -11.3,1.46 -13.62,-4.151 -2.112609,-5.09363 0.06436,-10.87845 1.967268,-15.78615 L 70.1865,398.1359 c 1.08,-2.799 2.27,-5.849 3.75,-8.719 -4.12,-3.1 -7.641,-6.951 -10.62,-11.33 -10.01,-14.75 -15.01,-36.321 -12.8,-53.92 1.33,-10.62 6.319,-21.62 14.489,-28.781 l -0.299,-0.78 v 0 c -2.29,-5.809 -4.371,-11.64 -5.72,-17.779 -1.58,-7.18 -2.351,-14.62 -3.05,-21.93 -1.48,-15.44 -1.08,-31.23 0.89,-46.61 3.7,-28.95 13.08,-57.37 29.73,-81.46 -4.721,-5.651 -8.46,-12.301 -6.511,-19.95 0.891,-3.511 2.92,-6.84 5.981,-8.851 1.689,-1.109 3.7,-1.279 5.39,-2.199 l 0.508156,-0.27979 c 0.742328,-0.433177 0.17452,-0.387269 -0.268156,-2.40021 -1.75,-8.041 -0.3,-15.81 8.55,-18.48 8.33,-2.51 16.21,2.82 21.14,9.17 12.9,-9.151 29.9,-13.94 44.85,-18.01 17,-4.611 34.439,-7.49 51.95,-9.271 z M 78.8069,326.2562 c -0.061,-6.55 6.149,-10.59 12.26,-9.519 4.103357,0.71407 7.526403,3.16298 10.74072,5.69417 l 1.56715,1.23992 c 3.91411,3.07287 8.4078,6.38564 10.74113,10.73591 3.42,6.42 -3.809,15.059 -10.559,10.559 -4.630333,-3.103 -7.59829,-8.07489 -10.635489,-12.69356 L 92.6069,331.7962 c -1.38,-2.07 -2.59,-4.27 -4.481,-5.93 l -0.408484,-0.35772 c -0.621466,-0.52972 -1.28888,-1.01319 -2.091516,-1.24228 -1.548387,-0.44516 -4.416337,0.17825 -5.099134,2.02159 l -0.06087,0.18841 c -0.25,0.931 -1.649,0.73 -1.659,-0.22 z"
         id="path2"
         fill="#000000"
         style="fill-rule:evenodd;stroke:none;stroke-width:1" />
    </g>
    <g
       id="Face"
       transform="matrix(0.83870986,0,0,0.83870986,304.86727,359.18215)"
       fill="#000000">
      <g
         id="Face/Calm"
         stroke="none"
         stroke-width="1"
         fill="none"
         fill-rule="evenodd">
        <path
           d="m 171.04175,240.15887 c -7.36663,2.13363 -15.27382,2.3244 -22.78284,0.12091 -6.81081,-1.9988 -13.80398,-6.39738 -18.81659,-12.21776 -4.45292,-5.17052 -7.33683,-11.45397 -7.22355,-18.1611 0.0129,-0.76601 0.28678,-1.4054 0.70812,-1.90169 0.45359,-0.53427 1.08712,-0.90115 1.76579,-1.06038 0.69797,-0.16377 1.43583,-0.10571 2.06413,0.17969 0.56879,0.25836 1.05609,0.6972 1.36081,1.33859 0.77034,1.01196 1.5377,2.00893 2.30807,2.97825 6.19396,7.64831 12.19233,13.36405 21.50623,15.41412 5.05345,1.11254 10.10054,0.6192 14.73142,-1.07821 4.95714,-1.81699 9.43824,-5.01169 12.94975,-9.09987 1.58691,-1.84757 3.46044,-2.60168 5.29244,-2.61435 2.07604,-0.0144 4.12803,0.95031 5.67391,2.49215 1.51954,1.51556 2.53699,3.57507 2.62921,5.72947 0.0809,1.89084 -0.5359,3.86596 -2.1769,5.62807 -5.40522,5.80449 -12.41042,10.0568 -19.99,12.25211 z m -0.22745,-95.79172 c 7.55138,4.59005 19.05736,15.29314 10.93382,26.67242 -9.56219,10.03349 -23.32959,-1.47059 -30.11392,-6.67344 -6.29075,-4.03223 -13.35876,6.33838 -7.5222,11.04669 49.02374,36.29524 68.91861,-29.84543 30.52169,-36.44243 -4.22764,-0.72697 -5.7978,3.97678 -3.81939,5.39676 z m -70.63934,-20.19706 c -2.427065,-1.55216 -5.282074,-2.08495 -8.446252,-0.64539 -2.472679,1.12444 -6.80948,4.87299 -9.827605,9.80069 -2.064802,3.37121 -3.528982,7.32608 -3.22416,11.44556 0.07079,0.9567 -0.282717,1.6621 -0.840312,2.18367 -0.440375,0.41193 -1.076483,0.71465 -1.823631,0.80929 -0.634326,0.0803 -1.344334,0.008 -1.921644,-0.17232 -1.098197,-0.34276 -1.679415,-1.05513 -1.898407,-1.63671 -2.11321,-5.61209 -1.202817,-11.87484 1.165558,-17.52494 3.196265,-7.62515 9.000771,-14.01216 12.803708,-16.07141 6.507618,-3.52505 14.184785,-3.68729 20.701715,-0.0962 5.54754,3.05647 9.01629,7.99103 12.46621,13.02102 0.73337,1.06926 1.46125,2.13068 2.21353,3.17343 1.50765,2.08944 1.65772,4.16173 1.07386,5.93873 -0.6468,1.96859 -2.29602,3.62995 -4.35833,4.4994 -1.90613,0.8036 -4.11844,0.91672 -6.07608,0.091 -1.65374,-0.6975 -3.17142,-2.05721 -4.13174,-4.36429 -1.61736,-3.8854 -4.31204,-8.17211 -7.87642,-10.45161 z m 123.26581,8.64428 c -1.66221,0.8661 -2.96263,1.12723 -4.80651,0.57479 -1.01966,-0.30627 -2.02744,-0.89326 -2.81644,-1.68226 -0.78194,-0.78194 -1.34611,-1.75435 -1.5654,-2.8331 -0.53935,-2.66232 -1.99601,-5.15443 -4.07181,-6.77904 -1.77423,-1.38859 -4.0137,-2.12457 -6.4977,-1.70936 -2.68043,0.44746 -5.23418,2.16653 -6.99304,4.19329 -0.58786,0.67818 -1.04866,1.44842 -1.51193,2.21345 -0.86661,1.43069 -1.70892,2.76055 -2.9041,3.81124 -0.45305,0.39975 -1.13573,0.67662 -1.79694,0.67662 -0.26873,0 -0.54146,-0.0437 -0.80134,-0.12472 -2.66788,-2.6777 -3.18094,-4.70901 -3.09493,-6.7238 0.0902,-2.1128 0.92318,-4.25199 2.26927,-6.24791 3.15762,-4.68196 9.15286,-8.52073 13.1985,-9.39023 5.54047,-1.19063 11.04282,0.23864 15.45436,3.33313 4.53921,3.18404 7.90275,8.12757 8.9514,13.69867 0.25227,1.34176 0.14507,2.79003 -0.36592,4.04575 -0.49932,1.22702 -1.36946,2.27794 -2.64747,2.94348 z M 112.39426,74.252649 c -3.32496,3.239495 -7.26033,3.741283 -11.24161,4.18759 -2.212091,0.250313 -3.978005,0.452101 -5.715741,0.844204 -4.776344,1.078168 -9.497599,2.702005 -13.804971,5.040642 -4.502664,2.44477 -9.409545,5.393156 -12.939678,9.170266 -0.839426,0.898817 -1.630718,1.841934 -2.423116,2.787117 -0.722556,0.861888 -1.418602,1.691633 -2.152167,2.491674 -0.842449,0.91895 -1.642445,1.882078 -2.438188,2.842678 -0.49205,0.81056 -0.589249,1.00991 -0.688337,1.21745 -0.149109,0.31184 -0.322557,0.66083 -0.520657,1.03522 -0.271306,0.51275 -0.589092,1.07404 -0.921915,1.58293 -0.553742,0.93017 -0.85087,1.18638 -1.10762,1.30098 -0.426036,0.18974 -0.830071,0.28321 -1.22205,0.2326 -0.367535,-0.0475 -0.713793,-0.22399 -1.055728,-0.51296 -1.707056,-1.44228 -2.210509,-3.80925 -2.158908,-6.32179 0.0783,-3.812765 1.484595,-8.034184 2.780982,-10.629195 3.014359,-6.029698 7.194866,-12.297958 12.221679,-16.798218 5.736047,-5.136964 12.011474,-9.02591 19.219446,-11.705659 4.479333,-1.665899 9.665614,-3.195032 14.545679,-3.001881 3.51266,0.13903 6.866,1.183199 9.63533,3.790758 1.70053,1.600707 2.51683,3.877549 2.51683,6.152778 0,2.32055 -0.84782,4.654803 -2.52926,6.292816 z m 117.80872,29.664931 c -0.21145,0.34656 -0.50411,0.58538 -0.82976,0.72881 -0.34138,0.15037 -0.72249,0.19368 -1.08822,0.13205 -0.36411,-0.0614 -0.71022,-0.2264 -0.98477,-0.47865 -0.26315,-0.24177 -0.46353,-0.56241 -0.55313,-0.95523 -2.20751,-9.695526 -6.49394,-16.909141 -15.64279,-21.560909 -4.50046,-2.288364 -9.67556,-3.742303 -14.57463,-4.901517 -1.42364,-0.336896 -2.92794,-0.555181 -4.44286,-0.776376 -4.74786,-0.693239 -9.52997,-1.487163 -12.62518,-5.324931 -1.86501,-2.311733 -2.64773,-5.26819 -2.20518,-7.971997 0.41668,-2.545782 1.90431,-4.880084 4.60857,-6.278956 6.73249,-3.480952 15.09891,-0.06523 21.89764,2.844501 0.50432,0.215842 0.99939,0.427726 1.48378,0.632169 6.64863,2.806428 12.71252,6.51085 17.69716,11.808593 3.95507,4.202887 7.6195,10.416088 9.09534,16.807753 1.22784,5.317635 0.93914,10.746209 -1.83597,15.29469 z"
           id="path3"
           fill="#000000" />
      </g>
    </g>
    <g
       id="Facial Hair"
       transform="matrix(0.83870986,0,0,0.83870986,274.67365,486.66576)"
       fill="#000000">
      <g
         id="Facial Hair/Full"
         stroke="none"
         stroke-width="1"
         fill="none"
         fill-rule="evenodd">
        <path
           d="m 117.72475,95.193032 c 8.09624,-18.967262 25.76676,-32.907153 46.11173,-38.003598 14.94015,-3.732987 30.61932,-3.61386 45.84908,-2.132277 7.9794,0.770823 16.53803,1.402498 24.05804,4.365663 6.42146,2.531705 11.65451,7.316817 15.58928,12.933817 4.68378,6.65611 7.86955,14.274249 10.10658,22.08259 0.31757,1.110186 0.61618,2.22838 0.89481,3.352581 -0.97271,5.891292 -3.03797,10.905652 -8.49472,14.609612 -5.32492,3.61686 -11.67848,5.09644 -18.01206,5.622 -0.62118,-0.29832 -1.22138,-0.60465 -1.77165,-0.91898 -9.86989,-5.65004 -16.81666,-19.0023 -29.2741,-17.19537 -11.11723,1.61372 -18.43551,15.60167 -25.04673,23.80443 -21.2218,2.47264 -42.42762,-3.90417 -59.69468,-16.03914 -0.87684,-4.15343 -0.92777,-8.341906 -0.31558,-12.481328 M 274.7581,80.804661 C 273.06036,76.040572 270.9222,71.426643 268.38757,67.08 260.0087,52.705645 247.14579,41.252409 231.87608,34.705416 195.75407,19.238893 149.01617,30.14154 119.84493,55.507638 c -9.96476,8.671263 -20.040372,21.413875 -23.087323,35.120518 -0.909792,0.180192 -1.76865,0.653698 -2.475711,1.32041 C 73.205899,78.679391 51.501737,65.912753 34.518302,47.519104 22.18469,34.154828 13.606088,18.338932 8.3530672,0.9593662 7.9236378,-0.47116198 5.616703,-0.26193847 5.6866101,1.3207522 5.7065836,1.6911479 5.726557,2.0605425 5.7465305,2.4309382 5.5268224,1.750211 4.4882024,2.1005853 4.4083085,2.7612911 1.5820637,23.873845 -1.9532391,46.257756 1.3024352,67.480428 3.2498477,80.143956 9.0022048,89.41486 16.691988,99.425554 c 8.239053,10.730466 17.566659,20.711126 27.103987,30.282346 6.051959,6.07549 12.37356,13.08298 19.783714,17.53774 8.618549,5.17553 18.395559,9.11073 27.593338,13.104 9.357563,4.07435 18.854943,7.83837 28.532093,11.10186 19.34429,6.54699 39.33773,11.07182 59.6807,13.05394 16.28836,1.58169 34.90363,3.30453 50.51289,-2.82302 11.9641,-4.69501 21.62127,-13.18308 29.28109,-23.39499 8.33892,-11.12188 14.93116,-23.79041 18.57532,-37.14968 3.78697,-13.87683 -2.19908,-38.095698 -2.99702,-40.333089"
           id="path4"
           fill="#000000" />
      </g>
    </g>
    <g
       id="Mask"
       transform="translate(158.75348,490.22231)"
       fill="#000000">
      <g
         id="Mask/None"
         stroke="none"
         stroke-width="1"
         fill="none"
         fill-rule="evenodd"
         fill-opacity="0" />
    </g>
    <g
       id="Accessories"
       transform="matrix(0.83870986,0,0,0.83870986,210.93176,405.31119)"
       fill="#000000">
      <g
         id="Accessories/Glasses 5"
         stroke="none"
         stroke-width="1"
         fill="none"
         fill-rule="evenodd">
        <path
           d="m 367.0895,74.4323 c -2.828,7.696 -7.132,15.708 -12.395,22.185 -21.294,18.032 -41.985,8.048 -52.491,-16.391 -3.992,-17.271 6.607,-35.875 17.838,-48.58 16.22,-16.257 42.691,-7.725 50.149,11.601 0.453,2.504 0.727,5.002 0.858,7.492 -0.155,8.091 -1.13,15.006 -3.959,22.693 m -204.68,-14.521 c 28.052,-33.367 80.532,-35.151 79.193,16.204 -6.026,65.004 -107.497,49.049 -79.193,-16.204 z m 213.503,-27.835 c -0.983,-1.665 -2.074,-3.276 -3.265,-4.817 -0.44,-0.262 -0.693,-2.586 -2.311,-2.758 -21.627,-23.859 -59.62,-10.322 -73.348,13.452 -2.507,3.006 -4.552,6.525 -6.06,10.243 -13.526,-2.481 -29.295,-1.999 -41.875,3.11 -12.474,-32.572 -50.239,-35.48 -75.126,-21.563 -15.479,7.613 -25.516,23.556 -40.57,32.314 -35.389,2.547 -73.37,-5.382 -108.12,3.495 -27.406,5.698 -4.496,19.575 0.1,10.314 32.763,-9.68 71.578,-1.5 105.595,-3.681 3.537,5.983 10.32,10.879 17.08,10.67 7.301,64.721 101.685,53.989 104.941,-3.544 3.693,-5.839 8.286,-11.427 14.86,-15.065 2.517,-0.521 4.948,-1.198 7.17,-2.246 3.798,-0.536 9.65,1.074 13.144,4.236 11.969,71.816 80.924,63.452 93.247,0.538 0.245,-0.25 0.93,-1.188 1.456,-2.693 4.218,-5.577 14.544,-7.65 12.894,-17.065 -1.469,-9.417 -13.361,-9.305 -19.812,-14.94 z"
           id="path5"
           fill="#000000" />
      </g>
    </g>
  </g>
</svg>
